<svg xmlns="http://www.w3.org/2000/svg" width="3440" height="2160" viewBox="0 0 3440 2160">
  <defs>
    <style>
      .cls-1 {
        fill: #1f1f1f;
        fill-rule: evenodd;
      }
    </style>
  </defs>
  <path id="Shape_322_1" data-name="Shape 322 1" class="cls-1" d="M541.827,81.381c6.99,3.107,64.4,187.379,74.088,209.65,67.861,156.079,150.042,280.091,268.728,384.15,16.3,14.292,143.777,135.489,163.247,104.2a213.087,213.087,0,0,0-42.7-92.9c-20.324-25.405-94.788-46.1-89.154-87.877,14.326-10.762,41.88-9.665,65.3-6.277C1117.73,612.056,1163.51,657.7,1243.78,729.162c-24.51-75.574-72.91-119.507-109.25-180.776-54.28-91.53-30.57-226.085,16.33-308.826l1.26-1.255c8.49,0.772,7.06,1,11.3,5.021-1.72,187.46,75.75,305.008,192.12,372.851,59.38,34.617,127.02,47.633,173.3,94.155,21.86,21.984,116.87,151.907,40.18,179.521-31.3-4.525-86.74-68.3-116.78-23.853-6.38,9.442-6.37,25.346-5.03,38.917,9.81,98.723,67.68,120.3,145.67,149.393,13.84,5.16,43.29,18.91,61.53,12.55,63.49-22.12-79.06-200.853-10.05-225.968,53.01-13.85,131.26,162.088,156.97,199.608,14.6-44.093-18.88-132.067-27.63-168.223-46.96-194.147-131.55-301.017-249.89-419.3C1502.73,431.9,1388.42,346.8,1386.94,324.927q2.5-3.767,5.02-7.533c60.58-16,124.47,24.087,167.01,41.428,150.54,61.355,271.75,158.055,349.1,292.506,17.43,30.3,84.75,161,55.25,204.629-37.12,16.094-84.53-47.955-97.95-71.557-8.32,28.146,5.4,76.106,10.05,101.686,20.96,115.384,42.27,256.534,125.57,305.064,36.23,21.1,88.21-36.39,114.28-1.26,28.27,38.11-53.21,117.38,3.76,149.39,0.42-.42.84-0.83,1.26-1.25,11.66-22.1,4.38-62.69,10.04-91.65,14.85-75.81,75.23-130.06,143.16-153.15,39.9-13.57,252.58-38.32,242.36,23.85-1.68,1.25-3.35,2.51-5.03,3.76-98.44-1.9-188.18,12.05-232.31,67.8-39.69,50.13-24.41,129.56,23.86,158.17,33.79,20.03,99.17,27.24,104.23-23.85,4-40.42-50.67-84.4,17.58-94.15,53.87-7.7,102.06,36.36,131.85,57.75,79.1,56.77,172.42,95.2,263.7,141.86,27.3,13.95,94.9,46.66,86.65,87.87-6.63,2.92-6.58,3.04-13.81,1.26-77.71-89.29-307.36-115.68-421.93-38.92-25.19,16.88-75.77,51.12-67.81,97.92,14.91,87.71,165.1,90,264.96,72.81,22.1-3.8,68.46-23.81,90.41-12.55,3.59,4.49,3.79,6.94,2.51,13.81-33.96,18.72-83.26,20.2-124.31,30.13-127.51,30.83-287.28,14.41-372.96-46.45-51.74-36.75-93.85-85.3-141.9-125.54q-70.935-65.28-141.89-130.56c3.39,23.81,42.7,105.34,15.06,129.3h-1.25c-37.91-5.95-111.66-150.8-136.88-185.79-77.15-107.07-196.75-197.34-359.14-217.19,1.68,0.84,3.35,1.68,5.03,2.52,46.81,41.93,76.42,72.64,100.45,139.34,1.75-25.35,1.49-45.58,22.61-55.23,57.62,6.85,131.84,112.04,161.99,154.41,104.13,146.34,207.83,337.51,283.79,508.43,21.12,47.51,83.15,158.11,75.35,218.44q-5.025,3.135-10.05,6.28c-35.52-4.73-166.86-160.35-204.68-192.08-123.55-103.63-256.03-205.88-396.82-291.25q-81.6-45.81-163.24-91.64c-22.38-10.92-52.49-14.62-69.07-31.39q0.63-5.64,1.26-11.29c38.21-21.38,116.17,1.6,149.43,11.29l360.4,112.99c-0.84-.42-1.68-0.84-2.51-1.26q-26.37-32.625-52.74-65.28c-101.89-126.66-244.77-207.02-379.24-301.29q-54.615-42.045-109.25-84.11c54.45,85.66,122.51,172.76,199.67,236.01,15.37,12.6,111.4,66.5,114.27,76.58-60.96,23.09-293.58-82.92-340.31-106.71-28.46-14.49-61.7-45.85-100.46-42.68-66.4,78.7,127.85,153.16,134.37,224.71-24.37,31.16-105.5,2.48-136.88-10.04-110.52-44.1-191.81-124-234.819-234.76-12.627-32.51-52.467-145.35,8.79-149.39,38.247,17.05,51.445,82.88,104.229,76.58q3.135-3.765,6.28-7.53c-0.96-68.36-96.019-96.13-139.391-125.54-80.224-54.4-253.281-212.426-243.613-341.468l12.557-7.532,5.023,1.256c55.5,80.827,106.11,143.9,213.475,173.243l-1.255-2.51C724.21,746.768,627.062,553.7,569.453,316.139c-7.556-31.157-46.934-201.5-33.9-229.737Z"/>
</svg>
