<svg xmlns="http://www.w3.org/2000/svg" width="3440" height="2160" viewBox="0 0 3440 2160">
  <defs>
    <style>
      .cls-1 {
        fill: #1f1f1f;
        fill-rule: evenodd;
      }
    </style>
  </defs>
  <path id="Shape_321_1" data-name="Shape 321 1" class="cls-1" d="M2577.1,38.4c12.96,0.637,19.79,8.5,19.33,19.342-5.66,16.576-74,42.262-91.59,53.954-23.51,15.624-46.04,36.973-61.07,61.081-36.9,59.21-32.11,153.533-50.88,232.106-11.85,49.595-35.19,89.608-50.89,132.342,34.51-34.492,62.24-85.523,78.37-137.432,6.62-21.319,5.06-70.946,22.39-82.459,2.03,0.679,4.07,1.358,6.1,2.036,55.16,87.731-76.07,259.539-76.33,350.2,28.43-36.333,57.28-126.088,103.81-138.449q4.065,2.035,8.14,4.072c5.9,22.826-12.44,41.391-18.32,61.08-8.96,30.041-15.34,74.653-10.17,115.035,13.75,107.511,51.74,170.47,122.12,219.891,19.29,13.54,46.69,18.267,63.1,34.612-3.62,25.06-55.57,26.263-81.41,19.342-69.93-18.725-137.2-102.143-210.68-23.414-8.02,8.6-26.1,26.257-22.39,41.734,0.34-.34.68-0.67,1.02-1.01,6.84-9.085,18.76-18.283,33.59-13.238,38.9,61.508-124.96,174.218-152.66,215.818-15.32,23-35.51,86.46,5.09,98.75,25.72-6.73,32.9-32.3,59.02-35.63-5.45,43.1-101.28,109.64-141.46,61.08-51.27-61.98,25.43-137.5,51.9-178.15-78.49,32.42-151.41,94.07-182.17,174.08-11.08,28.83-28.85,115.23,16.28,118.08,35.87-18.76,7.77-80.93,64.12-91.62,23.64-4.48,40.92,9.89,52.92,18.33,69.09,48.55,89.19,155.2,14.25,214.8-57.03,45.36-117.8-27.39-208.63-15.27-145.29,19.37-155.23,135.34-158.77,290.13h-5.09c1.89-93.84-9.9-175.36-69.21-207.67-25.08-13.67-94.37-17.88-110.93,7.12,102.52-32.76,166.12,74.03,119.08,153.72-21.01,35.59-64.53,69.46-128.24,61.08-32.97-4.33-72.31-2.3-96.68,8.15-42.74,18.32-72.69,51.16-81.42,103.83q-0.51,28.005-1.02,55.99-3.045,1.53-6.11,3.06h-1.01c-25.05-95.03,15.3-147.25,76.33-184.26,20.4-12.38,98.6-23.37,84.47-63.12-24-67.54-160.56,15.13-185.23,31.56q-75.3,51.4-150.62,102.82c-82.05,49.82-169.21,90.48-257.49,134.38-31.132,15.48-124.323,69.29-168.944,51.92q0.51-1.02,1.018-2.04c211.176-100.3,413.326-239.48,550.6-412.29,75.2-94.68,107.24-244.34,206.6-314.57,13.93-9.85,39.95-22.65,53.94-4.07,23.1,30.68,12.04,92.18,34.6,124.2,50.67,71.88,184.65,34.55,193.37-47.85-1.02-1.7-2.04-3.39-3.05-5.09h-2.04c-31.19,12.98-113.71,81.7-128.23-3.06-11.93-69.62,79.45-140.42,93.63-193.42,20.03-74.89-44.65-124.94-118.06-106.89-110.08,27.07-174.91,109.14-215.76,206.66q-28.485,70.23-56.99,140.48c-55.59,98.87-118.38,162.66-216.78,218.88-25.95,14.82-133.77,82.51-161.82,77.36-0.68-1.01-1.36-2.03-2.03-3.05,0.34-3.39.67-6.79,1.01-10.18,145.9-75.17,232.58-175.78,307.36-320.67,11.29-21.89,70.1-130.84,33.58-158.81-57.4-43.97-52.61,163.41-92.61,147.61-40.26-140.9,35.47-264.15,94.65-334.93,12.98-15.52,60.32-67.11,85.49-62.1l1.02,1.02c6.16,44.38-71.71,88.61-57,140.49,32.4-48.44,64.32-108.03,109.92-143.54q57.495-37.665,115-75.334c21.66-17.853,37.82-54.133,15.27-82.459-82.53-103.681-339.16,60.337-375.54,113-16.33,23.62-11.57,70.16-16.29,104.85-1.35.34-2.71,0.68-4.07,1.02l-1.02-1.02-13.23-43.77c-31.57,59.14-42.74,130.84-55.97,211.74-4.94,30.22,3.81,91.88-13.23,111.98q-4.08-1-8.14-2.03-3.57-7.635-7.13-15.27c0.86,170.23-63.07,260.55-143.5,348.16-1.36-2.04-2.71-4.07-4.07-6.11q44.265-75.33,88.54-150.67c13.72-32.08,16.09-73.11,21.38-114.01,5.26-40.74-11.12-122.59,35.62-118.09-0.81-93.39-9.14-200.58,16.28-274.87,6.3-18.42,17.53-41.15,34.6-48.86,15.7-7.09,30.33,1.32,42.75,4.07h1.01q4.59-19.845,9.16-39.7c15.44-36.178,44.84-65.119,74.3-87.549,56.49-43,174.25-83.774,209.65-141.5,6.66-10.863,5.14-24.611,8.14-37.667,31.17,90.213,83.49,131.158,183.2,153.72l59.02,11.2c-0.33-.339-0.67-0.679-1.01-1.018-55.31-46.148-36.37-176.314-3.06-231.088-30.76,17.961-78.56,125.627-87.52,167.971h-1.02c3.69-147.225,104.7-268.213,190.32-336.961,18.06-14.5,73.11-69.715,99.74-65.153q1.515,6.108,3.05,12.216c-77.66,58.746-164.1,159.491-138.41,306.421q8.13,35.628,16.28,71.261c25.16,47.317,149.35,99.358,116.02,174.08-29.95,67.162-118.61,42.852-203.54,55.992q-41.73,9.165-83.46,18.32v1.02c32.93-2.96,72.1-11.12,105.85-4.07,50.47,10.54,139.06,68.18,129.25,136.41-9.48,65.89-43.67,114.59-70.23,164.92,49.6-31.02,94.11-87.62,126.2-136.41l26.46-48.87,69.21-29.52c30.97-19.28,49.76-49.04,76.33-72.28-37.76,12.4-93.37,76.8-158.77,47.85q-12.21-13.23-24.42-26.47c-15.7-12.77-33.6-16.31-55.98-23.42,20.29-6.2,37.05-7.03,52.92-16.28,71.99-41.967,126.45-140.609,94.65-251.452,76.99,79.4,29.37,233.052-54.95,268.752,15.82,4.91,37.47-2.96,48.85-7.12,47.5-17.39,71.93-58.873,86.5-108.93q6.12-23.922,12.22-47.847c27.48-45.967,79.98-62.3,134.34-82.459-48.28-19.929-115.91,28.013-143.5,43.775-0.08-62.911-28.43-166.738-96.69-156.774-62.37,9.105-69.24,104.378-50.88,168.99-69.28-39.73-104.74-258.68-23.41-316.6,50.04-35.638,130.12-20.649,157.75,25.45,13.06,21.794,9.86,62.222,30.53,76.351,49.49,33.835,81.69-34.76,95.67,61.08h1.01c12.19-120.21-96.34-27.511-79.38-136.413,8-51.355,36.45-96.7,69.21-124.2q16.275-14.251,32.56-28.5,24.435-74.815,48.86-149.647c37.27-87.039,88.42-156.584,167.92-201.566ZM2272.79,529.081c-13.51,15.477-45.71,34.716-30.53,68.207Q2257.53,563.189,2272.79,529.081Zm85.49,191.386c-25.48,11.2-47.45,17.522-66.15,34.613,65.74-4.484,121.83,34.088,76.33,91.621-45.86,57.985-131.15,31.849-151.64,125.215-5.73,26.112-3.33,56.494,6.11,77.364,13.91-48.07,2.97-83.354,35.62-109.94,50.12-40.817,118.33-35.564,148.59-97.729C2431.19,792.186,2414.78,722.515,2358.28,720.467Z"/>
</svg>
