<svg xmlns="http://www.w3.org/2000/svg" width="4096" height="4096" viewBox="0 0 4096 4096">
  <defs>
    <style>
      .cls-1 {
        fill: #ffff;
        fill-rule: evenodd;
      }
    </style>
  </defs>
  <path id="Shape_319_1" data-name="Shape 319 1" class="cls-1" d="M1259.69,439.289c36.99-.769,33.94,20.174,45.93,44.133,31.47-5.135,58.56-19,71.17,15.312,36.81-.507,112.07-2.882,128.81,18.915q6.75,17.56,13.51,35.127c66.82,23.727,161.53-1.787,237.8,13.51,14.38,2.883,18.42,12.433,27.93,18.914l84.67,33.326c24.23,6.707,50.37,1.084,77.47,4.5,44.53,5.62,97.65,3.214,143.22,16.213,67.96,19.384,61.34,57.676,105.39,92.771,37.15,29.589,98.48,36.8,138.72,63.048,23.27,15.177,28.89,48.229,52.25,63.048,13.58,8.619,24.72-.1,36.03-2.7,17.31-3.976,35.83,6.466,46.84,11.709,42.15,20.075,112.78,63.619,137.82,99.977q9.45,21.164,18.92,42.337c10.57,12.82,36.37,9.37,46.84,22.51,24.07,30.23-10.44,47.5-3.61,72.96,5.22,19.46,16.99,44.78,21.62,66.65,5.92,27.94-2.64,56.48,4.5,84.66,21.2,83.63,60.27,154.97,79.27,244.99,4.15,19.65,4.42,56.18-3.6,71.16-5.47,10.21-17.13,16.79-19.82,29.72-10.32,49.62,10.44,103.34,0,147.71-9.4,39.98-47.05,41.14-72.96,63.95-65.63,57.8-94.3,150.79-180.16,189.15-39.77,17.77-111.18,10.79-154.03,22.51v10.81c55.16,30.44,104.04,72.69,153.13,109.89q47.745,28.815,95.49,57.64,13.05,16.215,26.12,32.42l65.76,31.53c21.53,12.25,40.63,26.26,60.35,39.63-3.04,31.23-20.03,56.08-14.41,97.27,10.19,74.82,43.96,122.93,65.75,183.74,17.65,49.26,24.65,108.17,45.94,154.02q27.48,60.345,54.95,120.69c14.12,54.3-34.49,105.21-36.03,158.53-1.44,49.62,29.67,65.93,22.52,117.99-5.71,41.5-27.67,49.4-40.54,78.36q-8.55,57.63-17.11,115.28l-27.03,34.23c-12.25,36.48,23.71,39.98,17.12,62.15l-30.63,45.93q-5.4,22.065-10.81,44.14c-22.02,69.34-31.78,140.2-81.97,181.04-10.67,8.68-26.06,23.36-40.53,27.02q-14.865-4.065-29.73-8.11c27.54-92.69,46.79-191.56,72.06-292.72,7.82-31.27,23.33-72.34,18.02-110.79-6.28-45.49-35.43-70.01-42.34-111.68-8.11-48.96,35.42-62.82,27.93-111.69-6.05-39.43-35.02-57.7-43.24-95.47q-0.9-41.43-1.8-82.87c-7.34-52.63-21.91-98.58-44.14-136.9-24.01-41.4-61.92-74.57-108.09-93.67q-38.28-12.615-76.57-25.22c-36.56-60.64,10.64-52.33,14.41-90.97q-7.65-19.365-15.31-38.73,1.35-14.865,2.7-29.72c-0.96-1.96-62.21-35.64-72.06-48.64-7.67-10.13-15.19-27.62-17.11-42.33v-20.72q-18.465-19.365-36.94-38.73c-43.41-35.83-104.37-50.51-154.93-80.16-31.42-18.43-53.1-47.47-82.87-64.85-22.26-12.99-55.65-15.61-76.57-29.72-43.23-29.18-95.84-111.62-152.23-117.99-4.7,20.83-3.38,38.98-12.61,54.04-20.4,33.26-47.16,32.08-63.05,82.86-26.68,85.23,60.96,315.15,97.28,356.67-16.92,50.15-76.78,63.16-92.78,111.69-11.37,34.47,35.2,57.13,14.41,85.57-21.17,28.95-98.2,9.99-103.59,45.93q-4.05,54.93-8.1,109.88c-7.75,58.23-17.99,148.53-2.71,208.06,14.9,58.03,100.9,219.57,58.55,292.73-60.62-9.98-139.08-229.76-154.93-299.03q-2.25-45.03-4.5-90.07c-12.61-54.65-20.02-129.54-37.84-182.84-16.19-48.44-58.44-126.49-50.44-189.14,6.54-51.24,85.89-118.18,81.07-145.92-10.78-62.09-46.86-116.65-67.56-174.73-23.09-64.79-42.11-131.43-58.55-201.75q-3.6-35.13-7.21-70.26c-12.22-49.57-57.46-90.58-108.99-102.68-37.88-8.89-107.57,7.57-114.4-32.42-4.5-26.37,27.21-40.87,43.24-47.74q50.43-15.765,100.89-31.52c40.72-17.9,69.67-48.33,102.68-73.86-7.34-21.12-31.49-37.92-26.12-68.45,5.81-32.97,40.24-48.72,33.33-81.96-20.16-97.02-73.77-182.19-52.24-303.54q29.715-104.46,59.45-208.96c5.85-21.15,25.09-56.25,17.11-85.56q-23.865-41.881-47.74-83.766c-7.76-18.167-3.83-41.088-9.01-63.949-31.87-5.881-138.53-35.365-121.6-78.36,9.33-23.717,43.59-43.957,63.05-58.545-9.36-17.63-43.52-38.5-26.12-67.552,6.16-10.293,17.2-14.688,21.62-27.02q-20.715-16.662-41.44-33.326c-77.89,22.343-77.83-26.3-90.08-94.572-2.93-16.381-24.04-29.442-12.61-49.538C1220.86,440.73,1239.85,444.567,1259.69,439.289Zm324.28,237.782c-29.02,8.173-58.83,1.246-74.77,21.616-18.01,23.02-7.44,58.393,10.81,72.956,42.21,33.688,200.69,140.357,262.13,59.446C1845.76,747.3,1665.76,676.057,1583.97,677.071Zm367.51,71.154c-38.82,10.739-107.13,3.373-99.98,56.744,2.6,19.412,20.47,38.355,34.23,46.835,33.54,20.674,221.16,65.9,251.31,25.22C2191.35,803.758,2021.58,747.275,1951.48,748.225ZM1566.85,890.534c-15.28,5.33-27.34,10.106-33.33,24.319-19.71,46.735,36.91,182.267,90.98,167.527C1702.86,1061.03,1628.93,890.305,1566.85,890.534Zm746.75,0c-111.93,43.537,72.2,236.416,133.31,190.046C2519.42,1025.55,2388.63,889.627,2313.6,890.534ZM1793.85,911.25c-61.01,25.8-51.32,111.42,14.41,98.18C1862.69,998.459,1859.94,908.831,1793.85,911.25Zm247.71,29.723c-28.85,7.683-57.34,1.019-73.86,19.815-23.01,26.173-3.37,38.763,2.7,59.442,5.41,18.45,2.83,29.78,13.51,43.24,35.14,44.27,172.68,78.69,222.49,22.51C2284.21,998.225,2126.21,939.793,2041.56,940.973ZM1779.43,1088.69c-26.47,10.4-46.66,18.88-62.15,39.63-31.7,42.47-80.36,187.95,6.31,208.96C1830.23,1363.12,1946.27,1085.76,1779.43,1088.69Zm516.15,14.41c-84.51,36.66,13.25,218.17,81.97,190.04C2466.43,1256.76,2367.52,1101.83,2295.58,1103.1Zm-730.53,36.02c-89.67,28.85-68.03,173.21,7.2,160.33C1642.57,1287.4,1644.17,1143.75,1565.05,1139.12Zm995.36,20.72c-63.57,24.47-55.76,148.14,20.72,132.4C2650.44,1277.98,2636.29,1157.99,2560.41,1159.84Zm-596.32,89.17c-15.12,15.03-34.93,27.95-41.43,51.34-8.73,31.38,14.29,67.13,20.72,91.87,8.03,30.95-4.17,62.14,1.8,95.47,5,27.93,22.01,48.04,27.02,72.06,10.64,51-51.84,52.01-53.15,91.87,6.84,6.51,8.14,16.13,4.51,26.12-20.88,57.4-53.03,38.94-103.59,59.44l2.7,0.9c56.76,22.64,230.12,28.41,281.94-2.7,30.59-18.35,41.27-57.47,72.07-74.76,15.57-8.74,42.28-8.02,63.05-9,56.06-2.66,78.45-55.27,85.58-110.79,1.53-11.96-1.71-30.7-7.21-36.93q-16.665-7.2-33.33-14.41c-33.16-15.3-79.1-37.32-100.89-64.85-45.15-57.04,10.52-77.85,20.72-112.58l-3.6,1.8c-53.98,4.3-95.67,25.32-156.74,10.81q-9.9-1.8-19.81-3.61C2003.13,1306.39,2000.57,1261.39,1964.09,1249.01Zm432.38,129.7c-27.32,11.96-36.18,27.5-27.03,60.34,3.82,13.7.16,22.07,6.31,31.53,24.37,37.5,132.64,73.05,169.35,22.52,31.96-44.01-14.81-91.27-49.55-101.78q-31.065-2.25-62.15-4.51C2421.16,1384.17,2414.38,1378.4,2396.47,1378.71Zm-828.72.9c-14.05,5.09-28.37,6.81-36.93,17.11-39.99,48.13,11.74,176.78,83.77,156.72C1694.66,1531.14,1667.9,1377.34,1567.75,1379.61Zm227.9,25.22c-18.4,7.21-40.66,17.98-35.13,47.73q3.6,12.615,7.2,25.22c-3.91,29.36-56.43,86.81,9.91,99.08C1846.6,1589.62,1887.75,1403.45,1795.65,1404.83Zm717.92,192.75c-20.16,7.89-25.78,14.01-35.13,32.42-78.39,9.68-144.19,30.11-179.26,83.76-19.09,29.21-20.72,75.07,9.91,93.68,12.22,7.42,34.35,10.32,51.35,5.4,28.72-8.31,173.76-88.12,184.66-108.08C2565.44,1667.47,2575.31,1596.55,2513.57,1597.58Zm-817.01,12.6c-62.29,17.73-41.91,91.33,9.01,81.07C1755.12,1681.26,1744.81,1617.11,1696.56,1610.18Zm-149.53,43.24c-31.48,14.04-46.58,48.48-28.82,87.36q7.65,11.715,15.31,23.42c15.31,53.81,7.1,92.74,53.15,114.39,12.88,6.06,31.25,7.89,45.94,1.8,46.18-19.16,41.85-86.46,15.31-122.49l-32.43-31.53q-1.35-11.7-2.7-23.41C1604.7,1677.46,1581.96,1652.79,1547.03,1653.42Zm374.73,166.63c-125.77,36.85,40.31,169.41,107.19,117.09,10.99-8.61,20.58-25.99,17.11-45.94C2036.13,1833.98,1989.13,1819.25,1921.76,1820.05Zm253.12,1.8c-63.62,20.86-33.68,114.71,14.41,107.18C2246.22,1920.11,2231.61,1822.42,2174.88,1821.85Zm248.61,29.72c-35.53,10.98-158.92,14.65-108.09,81.06,23.82,31.14,130.94,8.54,148.63-15.31C2487.02,1886.3,2460.67,1850.49,2423.49,1851.57Zm-1006.17,27.92c-56.06,17.13-54.13,84.71,5.41,82.86,17.65,32.83,79.37,63.08,94.58,7.21C1531.43,1917.67,1465.72,1878.23,1417.32,1879.49Zm295.46,45.04c-22.34,8.13-40.58,15.86-54.05,32.42-24.29,29.86-80.95,134.58-13.51,158.52,16.87,5.99,37.1,0,47.74-8.1C1720.38,2086.49,1810.16,1923.53,1712.78,1924.53Zm363.91,77.45c-41.33,11.04-112.52,2.82-100.89,63.05,7.52,38.91,29.95,24.97,58.55,30.63q20.715,10.35,41.44,20.71c24.55,10.78,49.91,10.19,81.07,8.11,11.61,14.92,27.86,35.27,46.84,42.33,38.19,14.22,72.57-23.92,63.96-63.05C2257.8,2059.02,2136.87,2003.44,2076.69,2001.98Zm-542.27,113.49c-79.98,34.67-5.71,98.3,21.62,131.5,15.8,19.19,33.2,48.78,57.65,58.55,12.56,5.01,30.23,2.26,39.63-3.61,26.53-16.56,20.7-55.07,10.81-84.66q-9-26.565-18.01-53.14c-11.12-16.62-21.26-8.92-42.34-17.11C1579.65,2137.62,1573.19,2114.81,1534.42,2115.47Zm839.53,18.02c-22.45,9.62-24.34,14.27-33.33,37.82-5.04,13.21-19.05,22.88-13.51,45.94,9.96,41.46,102.78,104.32,156.73,66.65C2558.75,2231.61,2428.2,2132.63,2373.95,2133.49Zm-121.61,53.14c-48.65,17.8-41.78,91.65,12.61,81.06C2311.94,2258.54,2308.41,2184.5,2252.34,2186.63Zm328.79,127.89c-46.11,14.12-216.25,19.56-166.65,96.38,10.82,16.76,31.09,21.19,52.25,27.92,43.89,13.96,100.38,27.21,129.71-9.91C2620.48,2398.48,2670.78,2312.24,2581.13,2314.52Zm-957.53,56.75c-46.88,18.19-35.32,46.24-17.12,81.96-5.24,13.31-16.88,26.84-14.41,46.84,4.03,32.51,38.45,86.37,78.37,56.74,32.02-23.77,5.08-41.38,8.11-63.05,1.33-9.51,10.71-20.01,12.61-32.42C1697.75,2418.24,1663.2,2370.41,1623.6,2371.27Zm1046.7,95.47c-37.78,13.78-26.42,36.15-50.44,54.04-8.38,6.24-24,3.59-36.03,6.31-23.17,5.24-47.82,29.13-35.13,60.34,7.71,18.99,64.05,69.98,86.47,73.86,53.02,9.17,70.05-58.82,55.85-98.18C2719.06,2537.68,2731,2465.45,2670.3,2466.74Zm-966.53,106.28c-48.63,20.04-38.05,92.94,16.21,80.16C1765.7,2642.42,1759.9,2570.57,1703.77,2573.02Zm1020.58,68.45c-46.93,17.54-41.15,90.13,11.71,81.07C2784.25,2714.28,2782.1,2639.02,2724.35,2641.47Zm-1148.49,1.81c-83.02,28.31-10.38,116.21,51.34,74.75,26.15-17.56,18.88-61.08-8.1-72.05Zm1164.7,113.48c-46.99,19.96-30.29,40.47-19.81,79.26,8.98,33.27,1.7,78.95,50.44,69.36C2832.43,2893.32,2806.91,2754.77,2740.56,2756.76Zm-1156.59,22.52c-49.29,19.73-38.47,93.11,16.21,80.16C1645.72,2848.66,1639.82,2776.87,1583.97,2779.28Zm1179.11,229.68c-59.97,22.84-29.91,123.46,23.42,112.58C2840.43,3110.54,2821.63,3006.87,2763.08,3008.96Z"/>
</svg>
